<?xml version="1.0" standalone="no"?>
<!DOCTYPE svg PUBLIC "-//W3C//DTD SVG 20010904//EN"
 "http://www.w3.org/TR/2001/REC-SVG-20010904/DTD/svg10.dtd">
<svg version="1.0" xmlns="http://www.w3.org/2000/svg"
 width="512.000000pt" height="512.000000pt" viewBox="0 0 512.000000 512.000000"
 preserveAspectRatio="xMidYMid meet">
<metadata>
Created by potrace 1.14, written by Peter Selinger 2001-2017
</metadata>
<g transform="translate(0.000000,512.000000) scale(0.100000,-0.100000)"
fill="#000000" stroke="none">
<path d="M0 2560 l0 -2560 2560 0 2560 0 0 2560 0 2560 -2560 0 -2560 0 0
-2560z m4240 0 l0 -491 -141 3 -141 3 -19 73 c-56 220 -236 402 -454 457 -89
23 -247 20 -331 -6 -213 -65 -379 -238 -433 -451 l-19 -73 -149 -3 -150 -3
-18 48 c-60 162 -198 292 -364 343 -80 25 -233 27 -312 4 -170 -51 -324 -192
-375 -346 l-16 -48 -219 0 -219 0 0 490 0 490 1680 0 1680 0 0 -490z"/>
</g>
</svg>
