<svg fill="#0b5898" xmlns="http://www.w3.org/2000/svg" width="1282.88" height="367.3" viewBox="0 0 1282.88 367.3">
  <path
    d="M760.72 109.05c-40.03 0-72.38 32.36-72.38 72.38s32.36 72.38 72.38 72.38 72.38-32.36 72.38-72.38-32.6-72.38-72.38-72.38Zm0 117.68c-24.93 0-45.3-20.37-45.3-45.3s20.37-45.3 45.3-45.3 45.3 20.37 45.3 45.3-20.37 45.3-45.3 45.3Zm-411.2-114.56-63.03 140.21h17.02l15.58-35.47h76.7l15.58 35.47h17.5l-62.79-140.21h-16.54Zm-23.49 89.4 31.4-71.18 31.64 71.18h-63.03Zm174.38-55.37c-18.45 0-32.84 8.63-40.74 23.49v-22.77h-15.58v144.52h15.58v-61.6c7.91 14.62 22.29 23.25 40.98 23.25 29.96 0 50.33-21.81 50.33-53.21.24-31.64-20.61-53.69-50.57-53.69Zm-2.88 92.51c-22.29 0-37.87-16.3-37.87-39.31s15.58-39.31 37.87-39.31 37.63 16.54 37.63 39.31c.24 23.01-15.58 39.31-37.63 39.31Zm596.59-96.1c-11.26 0-21.57 4.55-30.68 13.9v-11.98h-30.2v107.85h30.2v-60.16c0-8.39 2.16-14.86 6.71-19.17 4.55-4.31 9.83-6.47 15.82-6.47 12.22 0 18.22 8.39 18.22 24.93v60.88h29.96v-65.67c0-13.42-3.83-23.97-11.5-32.12-7.43-7.91-17.02-11.98-28.52-11.98Zm-118.28 0c-7.19 0-14.14 1.92-21.09 5.51s-12.7 8.63-16.78 15.34c-2.88-5.75-6.95-10.55-12.46-14.62-5.51-4.07-11.74-5.99-18.45-5.99-10.79 0-20.13 4.79-28.52 14.14v-12.22h-30.2v107.85h30.2v-58.48c0-8.39 2.16-14.86 6.71-19.17 4.55-4.31 9.59-6.47 15.34-6.47s10.07 1.92 12.7 5.99c2.64 4.07 3.83 10.31 3.83 18.93v58.96h30.2v-58.24c0-8.39 2.16-14.86 6.71-19.17 4.31-4.31 9.59-6.47 15.58-6.47 12.22 0 18.22 8.39 18.22 24.93v58.96h30.2v-65.67c0-14.38-3.83-25.17-11.74-32.84-7.67-7.43-17.74-11.26-30.44-11.26Zm188.64-6.71c5.03 0 9.11-1.68 12.46-5.03 3.36-3.36 5.03-7.67 5.03-12.46 0-5.03-1.68-9.11-5.03-12.46-3.36-3.36-7.67-5.03-12.46-5.03-5.03 0-9.11 1.68-12.46 5.03-3.36 3.36-5.03 7.67-5.03 12.46 0 5.03 1.68 9.11 5.03 12.46 3.36 3.36 7.67 5.03 12.46 5.03Zm-15.1 8.62h30.2v107.85h-30.2zm-526.85 1.68c-18.45 0-32.84 8.63-40.74 23.49v-22.77h-15.58v144.52h15.58v-61.6c7.91 14.62 22.29 23.25 40.98 23.25 29.96 0 50.33-21.81 50.33-53.21.24-31.64-20.61-53.69-50.57-53.69Zm-2.64 92.51c-22.29 0-37.87-16.3-37.87-39.31s15.58-39.31 37.87-39.31 37.63 16.54 37.63 39.31c0 23.01-15.58 39.31-37.63 39.31Z" />
  <g>
    <path
      d="m244.8 144.59 9.9-14.51-17.5-17.5-14.51 9.9a74.854 74.854 0 0 0-21.18-8.75l-3.45-17.27h-24.64l-3.22 17.27a74.733 74.733 0 0 0-21.18 8.75l-14.51-9.9-17.5 17.5 9.9 14.51c-3.91 6.45-7.14 13.58-8.75 21.18l-17.27 3.22v24.64l17.27 3.22c1.84 7.6 4.84 14.74 8.75 21.18l-9.9 14.74 17.5 17.5 14.51-9.9c6.45 4.14 13.58 7.14 21.18 8.75l3.22 17.27h24.64l3.22-17.27c7.6-1.84 14.74-4.84 21.18-8.75l14.51 9.9 17.5-17.5-9.9-14.51c3.91-6.45 7.14-13.58 8.75-21.18l17.27-3.22v-24.87l-17.27-3.22c-1.38-7.6-4.6-14.74-8.52-21.18Zm-58.94 80.35c-23.95 0-43.52-19.57-43.52-43.52s19.57-43.52 43.52-43.52 43.52 19.57 43.52 43.52-19.57 43.52-43.52 43.52Z" />
    <path
      d="M185.86 151.04c-16.81 0-30.39 13.58-30.39 30.39s13.58 30.39 30.39 30.39 30.39-13.58 30.39-30.39c0-16.81-13.58-30.39-30.39-30.39Zm-8.06 32.69c-6.22 0-11.28-5.07-11.28-11.28s5.07-11.28 11.28-11.28 11.28 5.07 11.28 11.28-5.07 11.28-11.28 11.28Z" />
  </g>
</svg>