<svg version="1.1" id="Ebene_1" xmlns="http://www.w3.org/2000/svg" xmlns:xlink="http://www.w3.org/1999/xlink" x="0px" y="0px"
	 viewBox="0 0 283.5 68.1" style="enable-background:new 0 0 283.5 68.1;" xml:space="preserve">
<style type="text/css">
	.st0{fill:none;}
	.st1{fill:#003B7E;}
	.st2{fill:#F9AE00;}
</style>
<g id="Clear_Space">
	<path class="st0" d="M70.4-14.2c0-0.1-0.1-0.2-0.2-0.3c-0.1-0.1-0.2-0.1-0.3,0L58.2-7.2l-11.8-7.2c-0.1-0.1-0.2-0.1-0.3,0
		c-0.1,0.1-0.2,0.2-0.2,0.3V8.5c0,0.2,0.1,0.3,0.3,0.3c0,0,0,0,0,0H52c0.2,0,0.3-0.1,0.3-0.3c0,0,0,0,0,0V-4l5.6,3.4
		c0.1,0.1,0.2,0.1,0.3,0.1c0.1,0,0.2,0,0.3-0.1c0,0,11.7-7,11.8-7.1c0.1-0.1,0.1-0.2,0.1-0.4C70.4-8.1,70.4-14.2,70.4-14.2z"/>
	<path class="st0" d="M70.3-5.1c-0.1-0.1-0.2-0.1-0.3,0l-5.7,3.4c-0.1,0.1-0.2,0.2-0.2,0.4v9.8c0,0.2,0.1,0.3,0.3,0.3c0,0,0,0,0,0
		h5.8c0.2,0,0.3-0.1,0.3-0.3V-4.8C70.4-5,70.4-5.1,70.3-5.1"/>
	<path class="st0" d="M260,56.5c0-0.2-0.1-0.3-0.3-0.3c-0.1,0-0.1,0-0.2,0l-11.8,7.2L236,56.3c-0.1-0.1-0.3,0-0.4,0.1
		c0,0,0,0.1,0,0.2v22.7c0,0.2,0.1,0.3,0.3,0.3c0,0,0,0,0,0h5.8c0.2,0,0.3-0.1,0.3-0.3V66.7l5.6,3.4c0.2,0.1,0.4,0.1,0.6,0
		c0,0,11.7-7,11.8-7.1c0.1-0.1,0.1-0.2,0.1-0.4C260,62.6,260,56.5,260,56.5z"/>
</g>
<g id="Artwork">
	<path class="st1" d="M259.6,20.7c5.5,0,10.3,3.8,11.4,9.1c0.1,0.3,0.3,0.5,0.6,0.5h11.2c0.3,0,0.6-0.3,0.6-0.6c0,0,0,0,0,0
		c0-4.8-5.4-21.3-23.8-21.3c-18.4,0-23.8,16.5-23.8,21.3c0,0.3,0.3,0.6,0.6,0.6c0,0,0,0,0,0h11.2c0.3,0,0.5-0.2,0.6-0.5
		C249.4,24.5,254.1,20.6,259.6,20.7z"/>
	<path class="st1" d="M259.6,44c5.5,0,10.3-3.8,11.4-9.1c0.1-0.3,0.3-0.5,0.6-0.5h11.2c0.3,0,0.6,0.3,0.6,0.6c0,0,0,0,0,0
		c0,4.8-5.4,21.3-23.8,21.3c-18.4,0-23.8-16.5-23.8-21.3c0-0.3,0.3-0.6,0.6-0.6c0,0,0,0,0,0h11.2c0.3,0,0.5,0.2,0.6,0.5
		C249.4,40.2,254.1,44,259.6,44z"/>
	<path class="st1" d="M137.6,24.5h11.6c0.3,0,0.6,0.3,0.6,0.6c0,0,0,0,0,0v29.7c0,0.3-0.3,0.6-0.6,0.6l0,0h-11.6
		c-0.3,0-0.6-0.3-0.6-0.6c0,0,0,0,0,0V25.1C137.1,24.8,137.3,24.5,137.6,24.5L137.6,24.5z"/>
	<path class="st1" d="M123.3,9.3h40.2c0.3,0,0.6,0.3,0.6,0.6c0,0,0,0,0,0v10.1c0,0.3-0.3,0.6-0.6,0.6l0,0h-40.2
		c-0.3,0-0.6-0.3-0.6-0.6V9.9C122.7,9.5,123,9.3,123.3,9.3L123.3,9.3z"/>
	<path class="st1" d="M86.3,27.3h16.9c0.3,0,0.6,0.3,0.6,0.6c0,0,0,0,0,0v8.9c0,0.3-0.3,0.6-0.6,0.6l0,0H86.3
		c-0.3,0-0.6-0.3-0.6-0.6v-8.9C85.7,27.6,86,27.3,86.3,27.3L86.3,27.3z"/>
	<path class="st1" d="M105.8,44.2H81.7V20.5h23.8c0.3,0,0.6-0.3,0.6-0.6V9.9c0-0.3-0.3-0.6-0.6-0.6c0,0,0,0,0,0H69.6
		c-0.3,0-0.6,0.3-0.6,0.6c0,0,0,0,0,0v45c0,0.3,0.3,0.6,0.6,0.6c0,0,0,0,0,0h36.3c0.3,0,0.6-0.3,0.6-0.6c0,0,0,0,0,0V44.8
		C106.4,44.4,106.1,44.2,105.8,44.2C105.8,44.2,105.8,44.2,105.8,44.2z"/>
	<path class="st1" d="M49,9.4c0-0.3-0.3-0.6-0.6-0.6c-0.1,0-0.2,0-0.3,0.1L24.5,23.3L0.9,8.9C0.6,8.7,0.3,8.8,0.1,9.1
		C0,9.2,0,9.3,0,9.4v45.4c0,0.3,0.3,0.6,0.6,0.6c0,0,0,0,0,0h11.6c0.3,0,0.6-0.3,0.6-0.6c0,0,0,0,0,0v-25l11.2,6.7
		c0.2,0.1,0.4,0.2,0.6,0.2c0.2,0,0.4-0.1,0.6-0.2c0,0,23.5-14,23.6-14.1c0.3-0.1,0.3-0.3,0.3-0.7C49,21.6,49,9.4,49,9.4z"/>
	<path class="st2" d="M48.7,27.5c-0.2-0.1-0.4-0.1-0.6,0l-11.4,6.8c-0.3,0.2-0.4,0.3-0.4,0.8v19.7c0,0.3,0.3,0.6,0.6,0.6
		c0,0,0,0,0,0h11.6c0.3,0,0.6-0.3,0.6-0.6V28.1C49,27.8,48.9,27.6,48.7,27.5"/>
	<path class="st1" d="M191.7,9.3h-11.5c-0.3,0-0.6,0.3-0.6,0.6v44.9c0,0.3,0.3,0.6,0.6,0.6c0,0,0,0,0,0h11.5c0.3,0,0.6-0.3,0.6-0.6
		c0,0,0,0,0,0V9.9C192.3,9.6,192,9.3,191.7,9.3C191.7,9.3,191.7,9.3,191.7,9.3"/>
	<path class="st1" d="M180.1,9.3h11.6c0.3,0,0.6,0.3,0.6,0.6v45c0,0.3-0.3,0.6-0.6,0.6l0,0h-11.6c-0.3,0-0.6-0.3-0.6-0.6v-45
		C179.6,9.5,179.8,9.3,180.1,9.3L180.1,9.3z"/>
	<path class="st1" d="M209.6,39.4c0,0,10.8-3.1,10.8-14.6c0-15.6-14.9-15.6-21.1-15.6h-2.3c-0.3,0-0.6,0.3-0.6,0.6v10.1
		c0,0.3,0.3,0.6,0.6,0.6h3.7c1.8,0,6.9,0.3,6.9,5.5c0,5.2-5.4,5.5-6.8,5.5h-3.8c-0.3,0-0.6,0.3-0.6,0.6v8.8c0,0.3,0.1,0.6,0.3,0.9
		l9,13.3c0.1,0.2,0.3,0.3,0.5,0.3h13.3c0.3,0,0.6-0.3,0.6-0.6c0-0.1,0-0.2-0.1-0.3L209.6,39.4"/>
</g>
</svg>