<svg width="1200" height="630" viewBox="0 0 1200 630" xmlns="http://www.w3.org/2000/svg">
  <defs>
    <!-- Brand gradient for subtle background -->
    <linearGradient id="bgGradient" x1="0%" y1="0%" x2="100%" y2="100%">
      <stop offset="0%" style="stop-color:#faf7ee;stop-opacity:1" />
      <stop offset="100%" style="stop-color:#f0eadb;stop-opacity:1" />
    </linearGradient>
    <!-- Clip path for wave -->
    <clipPath id="waveClip">
      <rect x="0" y="0" width="1200" height="120"/>
    </clipPath>
  </defs>
  
  <!-- Main background -->
  <rect width="1200" height="630" fill="url(#bgGradient)"/>
  
  <!-- Colored header section -->
  <rect width="1200" height="134" fill="#d9627f"/>
  
  <!-- Horizontal wave at the bottom of header -->
  <!-- Using the exact wave pattern from HorizontalWave component with proper scaling -->
  <!-- Position wave 1px above headerHeight to eliminate gap -->
  <g transform="translate(0, 133)">
    <svg width="1200" height="120" viewBox="0 0 35.28 2.17" preserveAspectRatio="none">
      <!-- Wave layer 1 -->
      <path
        d="M0 .5c3.07.55 9.27-.42 16.14 0 6.88.4 13.75.57 19.14-.11V0H0z"
        fill="#d9627f"
      />
      <!-- Wave layer 2 -->
      <path
        d="M0 1c3.17.8 7.29-.38 10.04-.55 2.75-.17 9.25 1.47 12.67 1.3 3.43-.17 4.65-.84 7.05-.87 2.4-.02 5.52.88 5.52.88V0H0z"
        opacity=".5"
        fill="#d9627f"
      />
      <!-- Wave layer 3 -->
      <path
        d="M0 1.85c2.56-.83 7.68-.3 11.79-.42 4.1-.12 6.86-.61 9.58-.28 2.73.33 5.61 1.17 8.61 1 3-.19 4.73-.82 5.3-.84V.1H0z"
        opacity=".5"
        fill="#d9627f"
      />
    </svg>
  </g>
  
  <!-- Case Study sign in header -->
  <text x="600" y="78" text-anchor="middle" fill="#1a1814" font-family="system-ui, -apple-system, sans-serif" font-size="32" font-weight="600" letter-spacing="0.5">
    Bridge-the-Gap → Case Study
  </text>
  
  <!-- Main title (below the wave) -->
  
  <text x="600" y="364" text-anchor="middle" fill="#1a1814" font-family="system-ui, -apple-system, sans-serif" font-size="56" font-weight="800" letter-spacing="-0.5">
    Manychat Design System
  </text>
  
  
  <!-- Bridge the Gap logo (below title) -->
  <g transform="translate(490.5, 439)">
    <svg width="219" height="28" viewBox="0 0 219 28" fill="none" xmlns="http://www.w3.org/2000/svg">
      <path d="M61.6325 23.1039V4.06082H69.5458C73.0202 4.06082 75.2529 5.93478 75.2529 8.8249V8.85129C75.2529 10.8968 73.7072 12.7312 71.6595 13.0083V13.0743C74.3413 13.3118 76.1644 15.1858 76.1644 17.6932V17.7196C76.1644 21.0452 73.694 23.1039 69.6251 23.1039H61.6325ZM68.6871 6.71339H65.0409V12.1109H68.1058C70.563 12.1109 71.8841 11.108 71.8841 9.31318V9.28679C71.8841 7.63718 70.7084 6.71339 68.6871 6.71339ZM68.6475 14.5787H65.0409V20.4514H68.8456C71.3425 20.4514 72.69 19.4352 72.69 17.5217V17.4953C72.69 15.5817 71.316 14.5787 68.6475 14.5787Z" fill="#1a1814"/>
      <path d="M77.1827 23.1039V9.11523H80.4722V11.5303H80.5382C80.9742 9.84106 82.1367 8.8249 83.7485 8.8249C84.158 8.8249 84.5411 8.89088 84.7921 8.95687V11.9262C84.5147 11.8206 84.0127 11.7414 83.4578 11.7414C81.5951 11.7414 80.4722 12.9159 80.4722 14.9879V23.1039H77.1827Z" fill="#1a1814"/>
      <path d="M87.1447 7.1093C86.1143 7.1093 85.3084 6.29109 85.3084 5.31452C85.3084 4.31156 86.1143 3.50655 87.1447 3.50655C88.1751 3.50655 88.9678 4.31156 88.9678 5.31452C88.9678 6.29109 88.1751 7.1093 87.1447 7.1093ZM85.4933 23.1039V9.11523H88.7828V23.1039H85.4933Z" fill="#1a1814"/>
      <path d="M95.7063 23.3811C92.1658 23.3811 89.92 20.6097 89.92 16.1096V16.0964C89.92 11.5831 92.1791 8.8249 95.6931 8.8249C97.6747 8.8249 99.2732 9.84106 100.066 11.5171H100.145V4.06082H103.435V23.1039H100.145V20.7285H100.066C99.2732 22.3781 97.7276 23.3811 95.7063 23.3811ZM96.6971 20.6097C98.7316 20.6097 100.145 18.8545 100.145 16.1096V16.0964C100.145 13.3646 98.7184 11.5962 96.6971 11.5962C94.5966 11.5962 93.2756 13.3118 93.2756 16.0964V16.1096C93.2756 18.8941 94.5834 20.6097 96.6971 20.6097Z" fill="#1a1814"/>
      <path d="M111.428 28C107.716 28 105.378 26.3108 104.981 24.1201L104.955 24.0013H108.192L108.231 24.1069C108.588 24.9119 109.711 25.519 111.428 25.519C113.568 25.519 114.744 24.384 114.744 22.6025V20.5833H114.678C113.899 22.0746 112.313 23.0248 110.305 23.0248C106.791 23.0248 104.532 20.3326 104.532 15.9776V15.9644C104.532 11.5435 106.818 8.8249 110.358 8.8249C112.34 8.8249 113.872 9.88065 114.665 11.4907H114.744V9.11523H118.034V22.708C118.034 25.8753 115.484 28 111.428 28ZM111.336 20.491C113.383 20.491 114.757 18.7622 114.757 16.0436V16.0304C114.757 13.325 113.37 11.5962 111.336 11.5962C109.222 11.5962 107.888 13.2986 107.888 16.0172V16.0304C107.888 18.7886 109.222 20.491 111.336 20.491Z" fill="#1a1814"/>
      <path d="M125.803 23.3811C121.602 23.3811 119.065 20.5965 119.065 16.1492V16.136C119.065 11.7282 121.641 8.8249 125.644 8.8249C129.647 8.8249 132.131 11.6358 132.131 15.8588V16.9146H122.328C122.381 19.3692 123.729 20.8209 125.869 20.8209C127.507 20.8209 128.577 19.9499 128.894 19.0129L128.92 18.9205H131.998L131.959 19.0657C131.523 21.2168 129.462 23.3811 125.803 23.3811ZM125.684 11.3983C123.94 11.3983 122.632 12.5728 122.368 14.7239H128.934C128.696 12.5068 127.428 11.3983 125.684 11.3983Z" fill="#1a1814"/>
      <path d="M142.715 23.3811C139.782 23.3811 138.395 22.1934 138.395 19.3164V11.649H136.413V9.11523H138.395V5.56526H141.737V9.11523H144.339V11.649H141.737V19.0393C141.737 20.4118 142.345 20.8473 143.547 20.8473C143.864 20.8473 144.115 20.8077 144.339 20.7945V23.2623C143.956 23.3151 143.375 23.3811 142.715 23.3811Z" fill="#1a1814"/>
      <path d="M145.609 23.1039V4.06082H148.898V11.4643H148.978C149.704 9.78827 151.197 8.8249 153.297 8.8249C156.31 8.8249 158.238 11.0156 158.238 14.394V23.1039H154.949V15.0406C154.949 12.8895 153.866 11.5962 151.976 11.5962C150.114 11.5962 148.898 13.0083 148.898 15.0406V23.1039H145.609Z" fill="#1a1814"/>
      <path d="M165.968 23.3811C161.767 23.3811 159.23 20.5965 159.23 16.1492V16.136C159.23 11.7282 161.806 8.8249 165.809 8.8249C169.812 8.8249 172.296 11.6358 172.296 15.8588V16.9146H162.493C162.546 19.3692 163.894 20.8209 166.034 20.8209C167.672 20.8209 168.742 19.9499 169.059 19.0129L169.085 18.9205H172.164L172.124 19.0657C171.688 21.2168 169.627 23.3811 165.968 23.3811ZM165.849 11.3983C164.105 11.3983 162.797 12.5728 162.533 14.7239H169.099C168.861 12.5068 167.593 11.3983 165.849 11.3983Z" fill="#1a1814"/>
      <path d="M183.989 28C180.277 28 177.939 26.3108 177.542 24.1201L177.516 24.0013H180.753L180.792 24.1069C181.149 24.9119 182.272 25.519 183.989 25.519C186.129 25.519 187.305 24.384 187.305 22.6025V20.5833H187.239C186.46 22.0746 184.874 23.0248 182.866 23.0248C179.352 23.0248 177.093 20.3326 177.093 15.9776V15.9644C177.093 11.5435 179.379 8.8249 182.919 8.8249C184.901 8.8249 186.433 9.88065 187.226 11.4907H187.305V9.11523H190.595V22.708C190.595 25.8753 188.045 28 183.989 28ZM183.897 20.491C185.944 20.491 187.318 18.7622 187.318 16.0436V16.0304C187.318 13.325 185.931 11.5962 183.897 11.5962C181.783 11.5962 180.449 13.2986 180.449 16.0172V16.0304C180.449 18.7886 181.783 20.491 183.897 20.491Z" fill="#1a1814"/>
      <path d="M196.342 23.3415C193.542 23.3415 191.653 21.6127 191.653 19.1185V19.0921C191.653 16.6111 193.581 15.1198 196.977 14.9087L200.636 14.6843V13.7209C200.636 12.3089 199.711 11.4511 198.047 11.4511C196.488 11.4511 195.537 12.1769 195.325 13.2063L195.299 13.325H192.247L192.26 13.1667C192.458 10.6857 194.612 8.8249 198.166 8.8249C201.666 8.8249 203.925 10.6725 203.925 13.4834V23.1039H200.636V20.9529H200.557C199.751 22.4177 198.192 23.3415 196.342 23.3415ZM194.929 18.9865C194.929 20.1346 195.88 20.8341 197.32 20.8341C199.209 20.8341 200.636 19.5804 200.636 17.9176V16.8618L197.439 17.0598C195.814 17.1653 194.929 17.8648 194.929 18.9733V18.9865Z" fill="#1a1814"/>
      <path d="M205.499 27.7229V9.11523H208.788V11.5303H208.854C209.66 9.85426 211.192 8.8249 213.2 8.8249C216.754 8.8249 219 11.5962 219 16.1096V16.1228C219 20.6097 216.754 23.3811 213.24 23.3811C211.245 23.3811 209.647 22.3781 208.854 20.7417H208.788V27.7229H205.499ZM212.223 20.6097C214.323 20.6097 215.644 18.8809 215.644 16.1228V16.1096C215.644 13.3118 214.323 11.5962 212.223 11.5962C210.188 11.5962 208.762 13.3646 208.762 16.1096V16.1228C208.762 18.8545 210.188 20.6097 212.223 20.6097Z" fill="#1a1814"/>
      <path d="M0 0H47.1293V24.4117H41.1063V14.8711C41.1063 8.61005 38.524 5.23108 33.6614 5.23108H33.5943C28.7316 5.23108 26.1829 8.67631 26.1829 15.368V24.4117H19.8254V16.8851C19.8254 10.7235 17.2767 7.41074 12.7159 7.41074H12.6488C8.45684 7.41074 6.10935 10.3591 6.10935 15.4275V24.4117H0V0Z" fill="#1a1814"/>
    </svg>
  </g>
  
  <!-- Subtle accent decoration -->
  <circle cx="80" cy="67" r="4" fill="rgba(26, 24, 20, 0.1)"/>
  <circle cx="1120" cy="67" r="4" fill="rgba(26, 24, 20, 0.1)"/>
  
  <!-- Upside-down wave at the bottom -->
  <!-- Flip both vertically and horizontally, position at bottom of canvas -->
  <g transform="translate(1200, 630) scale(-1, -1)">
    <svg width="1200" height="120" viewBox="0 0 35.28 2.17" preserveAspectRatio="none">
      <!-- Wave layer 1 -->
      <path
        d="M0 .5c3.07.55 9.27-.42 16.14 0 6.88.4 13.75.57 19.14-.11V0H0z"
        fill="#d9627f"
      />
      <!-- Wave layer 2 -->
      <path
        d="M0 1c3.17.8 7.29-.38 10.04-.55 2.75-.17 9.25 1.47 12.67 1.3 3.43-.17 4.65-.84 7.05-.87 2.4-.02 5.52.88 5.52.88V0H0z"
        opacity=".5"
        fill="#d9627f"
      />
      <!-- Wave layer 3 -->
      <path
        d="M0 1.85c2.56-.83 7.68-.3 11.79-.42 4.1-.12 6.86-.61 9.58-.28 2.73.33 5.61 1.17 8.61 1 3-.19 4.73-.82 5.3-.84V.1H0z"
        opacity=".5"
        fill="#d9627f"
      />
    </svg>
  </g>
</svg>