<svg width="36" height="35" viewBox="0 0 36 35" fill="none" xmlns="http://www.w3.org/2000/svg">
<path opacity="0.5" d="M0.12 18.272C0.12 12.5547 1.22933 8.33067 3.448 5.6C5.752 2.86933 9.16533 1.33333 13.688 0.991997L15.608 0.863998V8.8L13.944 8.92799C12.152 9.09866 10.8293 9.90933 9.976 11.36C9.12267 12.8107 8.696 14.8587 8.696 17.504V19.296H15.608V34.272H0.12V18.272ZM33.912 8.92799C32.12 9.09866 30.7973 9.90933 29.944 11.36C29.0907 12.8107 28.664 14.8587 28.664 17.504V19.296H35.576V34.272H20.088V18.272C20.088 12.5547 21.1973 8.33067 23.416 5.6C25.72 2.86933 29.1333 1.33333 33.656 0.991997L35.576 0.863998V8.8L33.912 8.92799Z" fill="white"/>
</svg>
